<svg width="228" height="215" viewBox="0 0 228 215" fill="none" xmlns="http://www.w3.org/2000/svg">
<path id="Vector" d="M187.247 120.659C184.034 132.66 177.911 143.683 169.42 152.751C160.929 161.82 150.333 168.655 138.569 172.649C126.806 176.644 114.239 177.676 101.981 175.653C89.7235 173.63 78.1541 168.616 68.2978 161.053C58.4415 153.491 50.6026 143.614 45.4756 132.298C40.3486 120.982 38.0918 108.576 38.905 96.1793C39.7183 83.7826 43.5765 71.7779 50.138 61.2287C56.6995 50.6795 65.7615 41.9115 76.5213 35.7015C78.6702 34.4609 80.5536 32.8092 82.0642 30.8406C83.5747 28.8721 84.6827 26.6253 85.3249 24.2285C85.9671 21.8318 86.1309 19.332 85.8071 16.872C85.4832 14.4119 84.6779 12.0397 83.4373 9.89084C80.9317 5.55101 76.8047 2.38428 71.9643 1.08729C69.5676 0.445084 67.0678 0.281221 64.6077 0.605099C62.1476 0.928976 59.7755 1.73423 57.6266 2.97489C38.2186 14.1792 22.5689 30.8872 12.6567 50.9859C2.74454 71.0846 -0.985009 93.6712 1.93972 115.89C4.86444 138.108 14.3121 158.96 29.0879 175.809C43.8637 192.658 63.304 204.747 84.9505 210.547C106.597 216.347 129.477 215.598 150.698 208.394C171.918 201.191 190.526 187.856 204.168 170.077C217.811 152.297 225.874 130.872 227.339 108.51C228.804 86.1478 223.605 63.8535 212.4 44.4462C211.159 42.2985 209.507 40.4163 207.538 38.907C205.57 37.3977 203.324 36.2909 200.927 35.6498C198.531 35.0087 196.032 34.8458 193.573 35.1704C191.114 35.495 188.743 36.3008 186.596 37.5418C184.448 38.7827 182.566 40.4346 181.056 42.403C179.547 44.3713 178.44 46.6177 177.799 49.0138C177.158 51.41 176.995 53.9089 177.32 56.368C177.644 58.8271 178.45 61.1981 179.691 63.3458C184.667 71.9289 187.897 81.4115 189.194 91.2477C190.49 101.084 189.829 111.079 187.247 120.659Z" fill="url(#paint0_linear_1_2789)" fill-opacity="0.5"/>
<defs>
<linearGradient id="paint0_linear_1_2789" x1="84.9504" y1="210.547" x2="136.445" y2="18.365" gradientUnits="userSpaceOnUse">
<stop stop-color="white"/>
<stop offset="1" stop-color="white" stop-opacity="0"/>
</linearGradient>
</defs>
</svg>
